<svg id="Layer_1" enable-background="new 0 0 512.136 512.136" height="512" viewBox="0 0 512.136 512.136" width="512" xmlns="http://www.w3.org/2000/svg"><g><path d="m104.351 403.371-23.928-196.831c-2.252-19.76 4.44-38.28 16.68-51.787l-11.105-13.685c-39.41 0-70.037 34.315-65.575 73.472l21.521 188.851c5.757 50.521 48.509 88.677 99.357 88.677h62.411l-.004-.02c-50.847 0-93.599-38.157-99.357-88.677z" fill="#cee1f2"/><path d="m370.835 512.068h-229.534c-61.059 0-112.315-45.748-119.228-106.413l-21.521-188.851c-2.772-24.319 4.986-48.74 21.284-67.001 16.298-18.262 39.685-28.735 64.161-28.735 11.046 0 20 8.954 20 20s-8.954 20-20 20c-13.285 0-25.473 5.458-34.318 15.37-8.846 9.911-12.889 22.638-11.385 35.837l21.521 188.851c4.608 40.444 38.78 70.942 79.485 70.942h229.534c40.705 0 74.876-30.498 79.485-70.942l21.521-188.851c1.504-13.199-2.54-25.927-11.386-35.838s-21.033-15.369-34.317-15.369c-11.046 0-20-8.954-20-20s8.954-20 20-20c24.477 0 47.862 10.473 64.16 28.734s24.057 42.682 21.285 67.002l-21.521 188.851c-6.91 60.665-58.167 106.413-119.226 106.413zm-187.689-228v-171c0-40.252 32.748-73 73-73s73 32.748 73 73v8h-86c-11.046 0-20 8.954-20 20s8.954 20 20 20h106c11.046 0 20-8.954 20-20v-28c0-62.309-50.691-113-113-113s-113 50.691-113 113v171c0 11.046 8.954 20 20 20s20-8.954 20-20z" fill="#008aff"/><path d="m270.146 265.068c13.807 0 25 11.193 25 25s-11.193 25-25 25-25-11.193-25-25 11.193-25 25-25zm84 138c0 13.807 11.193 25 25 25s25-11.193 25-25-11.193-25-25-25-25 11.193-25 25zm-73.568 18.846 118-123c7.646-7.971 7.384-20.632-.587-28.278-7.971-7.647-20.633-7.384-28.278.587l-118 123c-7.646 7.971-7.384 20.632.587 28.278 3.877 3.72 8.863 5.567 13.843 5.567 5.258 0 10.509-2.061 14.435-6.154z" fill="#ffbe3d"/></g></svg>