<?xml version="1.0" encoding="utf-8"?>
<!-- Generator: Adobe Illustrator 24.0.1, SVG Export Plug-In . SVG Version: 6.00 Build 0)  -->
<svg version="1.0" id="Layer_1" xmlns="http://www.w3.org/2000/svg" xmlns:xlink="http://www.w3.org/1999/xlink" x="0px" y="0px"
	 viewBox="0 0 150 31" style="enable-background:new 0 0 150 31;" width="150px" height="31px" xml:space="preserve">
<style type="text/css">
	.st0{fill:#fff;}
	.st1{fill:#fff;}
</style>
<g>
	<g>
		<path class="st0" d="M29.41,1.37c0.57,0.6,0.85,1.37,0.85,2.32v23.78c0,0.88-0.26,1.59-0.77,2.09c-0.51,0.51-1.18,0.77-2.02,0.77
			c-0.8,0-1.46-0.26-1.97-0.77c-0.51-0.5-0.77-1.21-0.77-2.09V12.8l-5.81,10.93c-0.38,0.71-0.8,1.23-1.25,1.55
			c-0.45,0.32-0.99,0.5-1.62,0.5c-0.61,0-1.13-0.17-1.59-0.5c-0.47-0.32-0.89-0.84-1.27-1.55L7.38,13.01v14.4
			c0,0-0.77,1.61-1.3,2.15c-0.53,0.54-1.22,0.81-2.09,0.81c-0.84,0-1.51-0.27-2.04-0.8c-0.53-0.53-0.88-2.17-0.88-2.17V3.69
			c0-0.95,0.28-1.72,0.86-2.32C2.5,0.77,3.25,0.47,4.17,0.47c1.33,0,2.35,0.71,3.05,2.13l8.48,16.1L24.16,2.6
			c0.75-1.42,1.75-2.13,3.01-2.13C28.09,0.47,28.83,0.77,29.41,1.37z"/>
		<path class="st0" d="M39.86,29.15c-1.64-0.88-2.91-2.11-3.8-3.72c-0.89-1.6-1.33-3.49-1.33-5.66s0.44-4.05,1.33-5.66
			c0.89-1.6,2.15-2.83,3.8-3.69c1.64-0.86,3.55-1.29,5.72-1.29c2.17,0,4.08,0.43,5.72,1.29c1.64,0.86,2.91,2.1,3.8,3.69
			c0.89,1.6,1.33,3.49,1.33,5.66s-0.44,4.05-1.33,5.66c-0.89,1.6-2.15,2.84-3.8,3.72c-1.64,0.88-3.55,1.32-5.72,1.32
			C43.41,30.46,41.5,30.02,39.86,29.15z M50.17,19.78c0-1.98-0.39-3.46-1.19-4.43c-0.8-0.97-1.92-1.46-3.4-1.46
			c-3.06,0-4.59,1.96-4.59,5.88s1.53,5.88,4.59,5.88C48.64,25.66,50.17,23.7,50.17,19.78z"/>
		<path class="st0" d="M79.07,27.58c0,0.75-0.28,1.41-0.85,1.98c-0.57,0.57-1.23,0.85-1.98,0.85s-1.44-0.33-2.09-1l-5.43-5.85
			l-5.39,5.85c-0.64,0.67-1.33,1-2.09,1c-0.78,0-1.45-0.28-2.03-0.85c-0.57-0.57-0.86-1.25-0.86-2.03c0-0.73,0.31-1.4,0.92-2.04
			l5.63-5.88l-5.26-5.47c-0.62-0.64-0.92-1.33-0.92-2.04c0-0.78,0.28-1.44,0.86-2c0.57-0.56,1.23-0.84,1.98-0.84
			c0.78,0,1.49,0.33,2.13,1l5.01,5.34l5.05-5.34c0.64-0.67,1.35-1,2.13-1c0.75,0,1.41,0.28,1.98,0.84c0.57,0.56,0.85,1.22,0.85,2
			c0,0.73-0.31,1.4-0.92,2.04l-5.3,5.47l5.63,5.88C78.76,26.13,79.07,26.83,79.07,27.58z"/>
		<path class="st0" d="M86.12,29.15c-1.64-0.88-2.91-2.11-3.8-3.72c-0.89-1.6-1.33-3.49-1.33-5.66s0.44-4.05,1.33-5.66
			c0.89-1.6,2.15-2.83,3.8-3.69c1.64-0.86,3.55-1.29,5.72-1.29s4.08,0.43,5.72,1.29c1.64,0.86,2.91,2.1,3.8,3.69
			c0.89,1.6,1.33,3.49,1.33,5.66s-0.44,4.05-1.33,5.66c-0.89,1.6-2.15,2.84-3.8,3.72c-1.65,0.88-3.55,1.32-5.72,1.32
			C89.67,30.46,87.76,30.02,86.12,29.15z M96.43,19.78c0-1.98-0.39-3.46-1.19-4.43c-0.8-0.97-1.92-1.46-3.4-1.46
			c-3.06,0-4.59,1.96-4.59,5.88s1.53,5.88,4.59,5.88C94.9,25.66,96.43,23.7,96.43,19.78z"/>
		<path class="st0" d="M137.32,11.15c1.2,1.35,1.8,3.56,1.8,6.62v9.65c0,0-0.69,1.71-1.27,2.21c-0.58,0.5-1.33,0.75-2.26,0.75
			c-0.89,0-1.64-0.25-2.26-0.75c-0.62-0.5-1.32-2.21-1.32-2.21v-9.8c0-1.27-0.22-2.16-0.65-2.68s-1.1-0.77-2-0.77
			c-1.11,0-2,0.39-2.67,1.15c-0.66,0.77-0.99,1.84-0.99,3.22v8.87c0,0.98-0.29,1.71-0.88,2.21c-0.58,0.5-1.33,0.75-2.26,0.75
			c-0.89,0-1.64-0.25-2.26-0.75c-0.62-0.5-0.92-1.24-0.92-2.21v-9.79c0-1.27-0.22-2.16-0.65-2.68c-0.43-0.52-1.1-0.77-2-0.77
			c-1.11,0-2,0.39-2.67,1.15c-0.66,0.77-0.99,1.84-0.99,3.22v8.87c0,0.98-0.3,1.71-0.9,2.21c-0.6,0.5-1.34,0.75-2.23,0.75
			c-0.89,0-1.64-0.25-2.26-0.75c-0.62-0.5-0.92-1.24-0.92-2.21V12.13c0-0.94,0.32-1.67,0.96-2.19s1.42-0.77,2.34-0.77
			c0.86,0,1.57,0.25,2.15,0.76c0.58,0.5,0.86,1.19,0.86,2.08v0.38c0.67-1.06,1.54-1.86,2.61-2.42s2.29-0.84,3.65-0.84
			c1.48,0,2.72,0.3,3.74,0.9c1.02,0.6,1.8,1.56,2.36,2.9c0.64-1.17,1.55-2.09,2.74-2.78c1.18-0.68,2.52-1.03,4.03-1.03
			C134.41,9.13,136.12,9.81,137.32,11.15z"/>
	</g>
	<circle class="st1" cx="144.75" cy="25.78" r="4.12"/>
</g>
</svg>
