<?xml version="1.0" encoding="utf-8"?>
<!-- Generator: Adobe Illustrator 24.0.1, SVG Export Plug-In . SVG Version: 6.00 Build 0)  -->
<svg version="1.1" id="Layer_1" xmlns="http://www.w3.org/2000/svg" xmlns:xlink="http://www.w3.org/1999/xlink" x="0px" y="0px"
	 viewBox="0 0 743 274.31" style="enable-background:new 0 0 743 274.31;" xml:space="preserve">
<style type="text/css">
	.st0{fill:#F47D20;}
	.st1{fill:#191919;}
	.st2{fill:none;}
	.st3{fill:#FFFFFF;}
	.st4{fill:#F8991D;}
	.st5{fill:#B45426;}
</style>
<g>
	<g>
		<g>
			<g>
				<path class="st0" d="M341.83,178.07l-24.91-30.67l23.53-21.26c1.69-1.43,2.62-3.26,2.7-5.31c0.05-1.4-0.29-3.49-2.19-5.56
					c-1.91-2.08-3.94-2.59-5.31-2.64c-0.09,0-0.18-0.01-0.27-0.01c-1.88,0-3.64,0.74-5.23,2.19l-31.04,28.05v-51.5
					c0-2.3-0.79-4.3-2.28-5.79c-1.5-1.5-3.5-2.29-5.8-2.29c-2.3,0-4.3,0.79-5.8,2.29c-1.49,1.49-2.28,3.5-2.28,5.79v90.92
					c0,2.3,0.79,4.3,2.29,5.79c1.49,1.49,3.5,2.28,5.79,2.28c2.3,0,4.3-0.79,5.79-2.29c1.49-1.49,2.29-3.5,2.29-5.79v-18.8
					l6.18-5.58l24.39,29.97c1.38,1.78,3.2,2.84,5.25,3.06c0.26,0.03,0.51,0.04,0.77,0.04c1.82,0,3.53-0.67,5.1-2
					c2.23-1.89,2.82-3.95,2.93-5.35C343.86,181.65,343.21,179.73,341.83,178.07z"/>
				<g>
					<path class="st0" d="M366.85,106.42c2.8,0,5.32-1.04,7.28-3c1.96-1.96,3-4.47,3-7.28c0-3.05-1.11-5.64-3.21-7.48
						c-2.01-1.77-4.34-2.66-6.93-2.66c-2.68,0-5.05,0.9-7.06,2.66c-2.1,1.84-3.21,4.43-3.21,7.48c0,2.81,1.04,5.32,3,7.28
						C361.66,105.38,364.14,106.42,366.85,106.42z"/>
					<path class="st0" d="M366.98,113.47c-3.01,0-4.88,1.24-5.92,2.29c-1.04,1.04-2.28,2.92-2.28,5.92v60.48
						c0,3.01,1.24,4.88,2.29,5.92c1.04,1.04,2.91,2.28,5.92,2.28c2.3,0,4.3-0.79,5.79-2.29c1.04-1.04,2.28-2.92,2.28-5.92v-60.48
						c0-3-1.24-4.88-2.28-5.92C371.28,114.26,369.28,113.47,366.98,113.47z"/>
				</g>
				<path class="st0" d="M461.12,129.26c-3.09-5.41-7.36-9.58-12.69-12.39c-5.26-2.77-11.27-4.17-17.86-4.17
					c-6.1,0-11.72,1.36-16.72,4.05c-1.36,0.73-2.65,1.55-3.89,2.45c-0.44-1.61-1.25-2.72-1.97-3.44c-1.49-1.49-3.5-2.28-5.79-2.28
					c-3.01,0-4.88,1.24-5.92,2.28c-1.04,1.04-2.28,2.92-2.28,5.92v60.61c0,2.3,0.79,4.3,2.29,5.79c1.04,1.04,2.92,2.28,5.92,2.28
					c2.3,0,4.3-0.79,5.8-2.29c1.49-1.49,2.28-3.49,2.28-5.79v-38.17c0-2.97,0.78-5.54,2.39-7.85c1.67-2.4,3.91-4.25,6.83-5.66
					c2.95-1.42,6.33-2.14,10.04-2.14c3.87,0,7.37,0.76,10.39,2.25c2.94,1.45,5.2,3.58,6.92,6.5c1.72,2.93,2.59,6.81,2.59,11.54
					v33.53c0,2.21,0.81,4.19,2.35,5.73c1.53,1.53,3.56,2.35,5.86,2.35c2.21,0,4.19-0.81,5.73-2.35c1.54-1.54,2.35-3.52,2.35-5.73
					v-33.53C465.72,141.19,464.17,134.63,461.12,129.26z"/>
			</g>
			<g>
				<path class="st1" d="M550.35,131.95c-3.4-5.87-8.08-10.57-13.91-13.98c-5.85-3.41-12.53-5.14-19.85-5.14
					c-7.32,0-14.02,1.73-19.91,5.14c-5.88,3.41-10.59,8.11-13.99,13.99c-3.41,5.88-5.14,12.62-5.14,20.04c0,7.32,1.68,14,4.99,19.88
					c3.31,5.88,7.88,10.59,13.58,14c5.72,3.42,12.25,5.16,19.43,5.16c6.82,0,13.02-1.6,18.43-4.75c1.87-1.09,3.61-2.32,5.22-3.7
					c0.06,2.21,0.89,4.14,2.4,5.57c1.52,1.46,3.53,2.23,5.8,2.23c2.27,0,4.27-0.77,5.81-2.23c1.57-1.5,2.4-3.52,2.4-5.84v-30.31
					C555.52,144.55,553.75,137.82,550.35,131.95z M516.58,175.63c-4.31,0-8.23-1.02-11.67-3.05c-3.5-2.05-6.2-4.81-8.26-8.44
					c-2.04-3.58-3.07-7.67-3.07-12.17c0-4.57,1.03-8.68,3.06-12.21c2.06-3.59,4.77-6.36,8.29-8.46c3.44-2.06,7.36-3.1,11.65-3.1
					c4.37,0,8.31,1.04,11.7,3.09c3.47,2.1,6.14,4.86,8.16,8.45c2,3.54,3.01,7.66,3.01,12.24c0,4.5-1.01,8.6-3.02,12.19
					c-2.02,3.62-4.68,6.37-8.13,8.42C524.91,174.61,520.96,175.63,516.58,175.63z"/>
				<path class="st1" d="M614.26,114.73c-2.64-1.37-6.12-2.04-10.63-2.04c-5.54,0-10.66,1.36-15.22,4.05
					c-1.36,0.8-2.65,1.71-3.87,2.71c-0.39-1.8-1.25-3.01-2-3.77c-1.48-1.48-3.45-2.22-5.86-2.22c-3.01,0-4.85,1.21-5.86,2.22
					c-1.47,1.47-2.22,3.44-2.22,5.86v60.74c0,3.01,1.21,4.85,2.22,5.86c1.01,1.01,2.84,2.22,5.85,2.22c2.41,0,4.38-0.75,5.86-2.22
					c1.02-1.02,2.22-2.85,2.22-5.86v-38.56c0-3.37,0.87-6.16,2.65-8.54c1.84-2.45,4.29-4.24,7.48-5.45c2.5-0.95,5.33-1.43,8.44-1.43
					c0.96,0,1.97,0.05,2.99,0.14l0.05,0l0.05,0c1.45,0.09,2.74,0.17,3.89,0.26c0.27,0.02,0.54,0.03,0.8,0.03
					c1.44,0,2.75-0.3,3.88-0.91c1.62-0.85,2.74-2.39,3.33-4.57l0.01-0.04l0.01-0.04C619.19,119.61,617.7,116.53,614.26,114.73z"/>
				<path class="st1" d="M691.56,131.95c-3.4-5.87-8.08-10.57-13.91-13.98c-5.85-3.41-12.53-5.14-19.85-5.14
					c-7.32,0-14.02,1.73-19.91,5.14c-5.88,3.41-10.59,8.12-13.99,13.99c-3.41,5.88-5.14,12.62-5.14,20.03c0,7.32,1.68,14,4.99,19.88
					c3.31,5.88,7.88,10.59,13.58,14c5.72,3.42,12.25,5.16,19.43,5.16c6.82,0,13.02-1.6,18.43-4.75c1.86-1.09,3.61-2.32,5.22-3.7
					c0.06,2.21,0.89,4.13,2.4,5.57c1.53,1.46,3.53,2.23,5.8,2.23c2.27,0,4.27-0.77,5.81-2.23c1.57-1.5,2.4-3.52,2.4-5.84v-30.31
					C696.73,144.55,694.96,137.82,691.56,131.95z M669.52,172.6c-3.4,2.02-7.34,3.04-11.73,3.04c-4.31,0-8.23-1.02-11.67-3.05
					c-3.5-2.05-6.2-4.81-8.26-8.44c-2.03-3.58-3.07-7.67-3.07-12.17c0-4.57,1.03-8.68,3.06-12.21c2.06-3.59,4.78-6.36,8.29-8.46
					c3.44-2.06,7.36-3.1,11.65-3.1c4.37,0,8.31,1.04,11.7,3.09c3.47,2.1,6.14,4.86,8.16,8.45c2,3.54,3.01,7.66,3.01,12.24
					c0,4.5-1.01,8.6-3.02,12.19C675.63,167.79,672.97,170.55,669.52,172.6z"/>
				<g>
					<path class="st1" d="M719.96,106.42c2.8,0,5.32-1.04,7.28-3c1.96-1.96,2.99-4.47,2.99-7.28c0-3.05-1.11-5.64-3.21-7.48
						c-2.01-1.77-4.34-2.66-6.93-2.66c-2.68,0-5.05,0.9-7.06,2.66c-2.1,1.84-3.21,4.43-3.21,7.48c0,2.81,1.04,5.32,3,7.28
						C714.76,105.38,717.23,106.42,719.96,106.42z"/>
					<path class="st1" d="M720.08,113.47c-3.01,0-4.88,1.24-5.92,2.28c-1.04,1.04-2.28,2.92-2.28,5.92v60.48
						c0,3.01,1.24,4.88,2.28,5.92c1.04,1.04,2.92,2.29,5.92,2.29c2.3,0,4.3-0.79,5.8-2.29c1.04-1.04,2.28-2.91,2.28-5.92v-60.48
						c0-3.01-1.24-4.88-2.29-5.92C724.39,114.26,722.38,113.47,720.08,113.47z"/>
				</g>
			</g>
		</g>
	</g>
	<g>
		<g>
			<g>
				<path class="st2" d="M280.47,255.78c-0.37,0.22-0.74,0.43-1.11,0.62C279.73,256.2,280.1,256,280.47,255.78z"/>
				<path class="st2" d="M279.12,256.5c-0.31,0.15-0.63,0.29-0.94,0.42C278.5,256.8,278.81,256.66,279.12,256.5z"/>
				<path class="st2" d="M277.89,257.05c-0.38,0.15-0.75,0.28-1.13,0.39C277.14,257.33,277.52,257.19,277.89,257.05z"/>
				<path class="st2" d="M284.01,253.04c-0.28,0.27-0.57,0.53-0.86,0.79C283.44,253.57,283.72,253.31,284.01,253.04z"/>
				<path class="st2" d="M281.62,255.02c-0.3,0.21-0.6,0.41-0.9,0.6C281.03,255.42,281.33,255.23,281.62,255.02z"/>
				<path class="st2" d="M276.6,257.48c-0.33,0.09-0.66,0.17-0.99,0.24C275.93,257.65,276.26,257.58,276.6,257.48z"/>
				<path class="st2" d="M282.94,254c-0.35,0.29-0.7,0.57-1.06,0.83C282.24,254.57,282.6,254.29,282.94,254z"/>
				<path class="st2" d="M270.51,257.56c-0.33-0.1-0.65-0.23-0.97-0.37C269.85,257.33,270.18,257.46,270.51,257.56z"/>
				<path class="st2" d="M271.61,257.82c-0.32-0.06-0.63-0.13-0.94-0.21C270.98,257.69,271.29,257.76,271.61,257.82z"/>
				<path class="st2" d="M269.33,257.09c-0.32-0.15-0.64-0.32-0.94-0.52C268.69,256.77,269.01,256.94,269.33,257.09z"/>
				<path class="st2" d="M272.84,257.95c-0.36-0.02-0.71-0.05-1.06-0.1C272.13,257.9,272.48,257.94,272.84,257.95z"/>
				<path class="st2" d="M274.15,257.93c-0.36,0.03-0.72,0.03-1.08,0.02C273.42,257.97,273.78,257.96,274.15,257.93z"/>
				<path class="st2" d="M274.19,257.93c0.37-0.03,0.74-0.09,1.11-0.15c-0.38,0.07-0.75,0.12-1.13,0.15
					C274.19,257.93,274.19,257.93,274.19,257.93z"/>
				<path class="st2" d="M240.51,200.29c0.36-0.03,0.72-0.03,1.08-0.03C241.23,200.26,240.87,200.26,240.51,200.29z"/>
				<path class="st2" d="M241.82,200.27c0.36,0.02,0.71,0.05,1.06,0.1C242.53,200.32,242.18,200.29,241.82,200.27z"/>
				<path class="st2" d="M240.46,200.29c-0.37,0.03-0.74,0.09-1.11,0.15c0.38-0.07,0.75-0.12,1.13-0.15
					C240.47,200.29,240.47,200.29,240.46,200.29z"/>
				<path class="st2" d="M243.05,200.41c0.32,0.06,0.63,0.13,0.94,0.22C243.68,200.53,243.37,200.46,243.05,200.41z"/>
				<path class="st2" d="M237.89,200.79c-0.2,0.06-0.41,0.13-0.61,0.2l0.01,0.01C237.49,200.92,237.69,200.85,237.89,200.79z"/>
				<path class="st2" d="M238.07,200.74c0.33-0.09,0.66-0.17,0.98-0.24C238.72,200.57,238.4,200.65,238.07,200.74z"/>
				<path class="st2" d="M290.66,240.07c-0.08,0.62-0.19,1.25-0.34,1.89C290.47,241.32,290.59,240.69,290.66,240.07z"/>
				<path class="st2" d="M244.15,200.67c0.33,0.1,0.66,0.23,0.97,0.37C244.8,200.89,244.48,200.77,244.15,200.67z"/>
				<path class="st2" d="M286.19,250.6c-0.27,0.35-0.54,0.68-0.82,1.01C285.65,251.28,285.92,250.95,286.19,250.6z"/>
				<path class="st2" d="M289.53,244.64c-0.25,0.66-0.55,1.33-0.87,1.99C288.98,245.96,289.28,245.3,289.53,244.64z"/>
				<path class="st2" d="M287.29,249.06c-0.28,0.42-0.57,0.83-0.86,1.23C286.72,249.89,287.01,249.48,287.29,249.06z"/>
				<path class="st2" d="M285.25,251.75c-0.32,0.36-0.64,0.7-0.98,1.03C284.6,252.45,284.93,252.11,285.25,251.75z"/>
				<path class="st2" d="M245.33,201.13c0.32,0.15,0.64,0.32,0.94,0.52C245.96,201.45,245.65,201.28,245.33,201.13z"/>
				<path class="st0" d="M224.26,216.57c0.21-0.99,0.5-1.98,0.87-2.98C224.75,214.58,224.46,215.58,224.26,216.57z"/>
				<path class="st0" d="M228.47,207.62c0.27-0.35,0.54-0.68,0.82-1.01C229.01,206.94,228.74,207.27,228.47,207.62z"/>
				<path class="st0" d="M231.71,204.22c0.35-0.29,0.7-0.57,1.06-0.83C232.41,203.66,232.06,203.93,231.71,204.22z"/>
				<path class="st0" d="M233.04,203.2c0.29-0.21,0.59-0.41,0.89-0.59C233.63,202.8,233.33,203,233.04,203.2z"/>
				<path class="st0" d="M229.41,206.47c0.32-0.36,0.65-0.7,0.98-1.03C230.05,205.77,229.73,206.11,229.41,206.47z"/>
				<path class="st0" d="M230.65,205.18c0.28-0.27,0.57-0.53,0.85-0.78C231.22,204.65,230.93,204.91,230.65,205.18z"/>
				<path class="st0" d="M234.19,202.45c0.37-0.22,0.73-0.43,1.11-0.61C234.93,202.02,234.56,202.23,234.19,202.45z"/>
				<path class="st0" d="M223.09,206.39c2.43-3.75,5.68-6.76,9.23-8.72l-12-8.02c-5.54-3.6-13.38-1.45-17.42,4.77v0
					c-4.04,6.22-2.82,14.26,2.71,17.86l13.15,8.79C218.57,216.37,219.98,211.18,223.09,206.39z"/>
				<path class="st0" d="M235.54,201.72c0.31-0.15,0.62-0.29,0.93-0.42C236.16,201.43,235.85,201.56,235.54,201.72z"/>
				<path class="st0" d="M237.29,200.99L237.29,200.99c-0.18,0.05-0.35,0.12-0.53,0.18C236.94,201.11,237.12,201.05,237.29,200.99z"
					/>
				<path class="st0" d="M227.36,209.17c0.28-0.43,0.57-0.83,0.87-1.23C227.93,208.33,227.64,208.74,227.36,209.17z"/>
				<path class="st0" d="M290.08,233.46c-0.42-1.19-1.02-2.26-1.8-3.16c-0.52-0.6-1.12-1.13-1.79-1.57l-40.22-27.08
					c-0.3-0.2-0.62-0.36-0.94-0.52c-0.07-0.03-0.14-0.07-0.2-0.1c-0.32-0.14-0.64-0.27-0.97-0.37c-0.05-0.02-0.11-0.03-0.16-0.04
					c-0.31-0.09-0.62-0.16-0.94-0.22c-0.06-0.01-0.12-0.02-0.17-0.03c-0.35-0.05-0.7-0.09-1.06-0.1c-0.08,0-0.15,0-0.23-0.01
					c-0.36-0.01-0.72,0-1.08,0.03c-0.01,0-0.02,0-0.03,0c-0.37,0.03-0.75,0.09-1.13,0.15c-0.1,0.02-0.2,0.04-0.3,0.06
					c-0.33,0.07-0.65,0.14-0.98,0.24c-0.06,0.02-0.12,0.03-0.17,0.05c-0.2,0.06-0.4,0.14-0.6,0.21c-0.18,0.06-0.35,0.11-0.53,0.18
					c-0.1,0.04-0.2,0.08-0.3,0.12c-0.31,0.13-0.62,0.27-0.93,0.42c-0.08,0.04-0.16,0.07-0.24,0.12c-0.37,0.19-0.74,0.39-1.11,0.61
					c-0.09,0.05-0.18,0.11-0.27,0.17c-0.3,0.19-0.6,0.38-0.89,0.59c-0.09,0.06-0.18,0.12-0.27,0.19c-0.36,0.26-0.71,0.54-1.06,0.83
					c-0.07,0.06-0.14,0.12-0.21,0.18c-0.29,0.25-0.57,0.51-0.85,0.78c-0.09,0.09-0.18,0.17-0.26,0.26
					c-0.33,0.33-0.66,0.67-0.98,1.03c-0.04,0.05-0.08,0.09-0.12,0.14c-0.28,0.32-0.56,0.66-0.82,1.01c-0.08,0.1-0.16,0.21-0.24,0.31
					c-0.3,0.4-0.59,0.81-0.87,1.23h0c-0.93,1.44-1.68,2.92-2.24,4.42c-0.37,1-0.66,1.99-0.87,2.98c-0.31,1.48-0.44,2.93-0.39,4.32
					c0.04,0.92,0.15,1.81,0.35,2.65c0.12,0.52,0.29,1.02,0.47,1.5c0.26,0.69,0.58,1.34,0.96,1.93c0.66,1.01,1.5,1.87,2.51,2.53
					l40.22,27.08c0.3,0.2,0.62,0.36,0.94,0.52c0.07,0.03,0.14,0.07,0.21,0.1c0.32,0.14,0.64,0.27,0.97,0.37
					c0.05,0.02,0.11,0.03,0.16,0.04c0.31,0.09,0.62,0.16,0.94,0.21c0.06,0.01,0.12,0.02,0.17,0.03c0.35,0.05,0.7,0.09,1.06,0.1
					c0.08,0,0.15,0,0.23,0.01c0.36,0.01,0.72,0,1.08-0.02c0.01,0,0.02,0,0.03,0c0.37-0.03,0.75-0.09,1.13-0.15
					c0.1-0.02,0.2-0.04,0.3-0.06c0.33-0.07,0.66-0.15,0.99-0.24c0.06-0.02,0.11-0.03,0.17-0.04c0.38-0.11,0.75-0.25,1.13-0.39
					c0.1-0.04,0.19-0.08,0.29-0.12c0.31-0.13,0.63-0.27,0.94-0.42c0.08-0.04,0.16-0.07,0.23-0.11c0.37-0.19,0.74-0.4,1.11-0.62
					c0.09-0.05,0.17-0.11,0.26-0.16c0.3-0.19,0.6-0.39,0.9-0.6c0.09-0.06,0.18-0.12,0.26-0.19c0.36-0.26,0.71-0.54,1.06-0.83
					c0.07-0.06,0.13-0.12,0.2-0.18c0.29-0.25,0.58-0.51,0.86-0.79c0.09-0.08,0.18-0.17,0.26-0.25c0.33-0.33,0.66-0.67,0.98-1.03
					c0.04-0.05,0.08-0.1,0.12-0.14c0.28-0.32,0.55-0.66,0.82-1.01c0.08-0.1,0.16-0.21,0.24-0.32c0.3-0.4,0.59-0.8,0.86-1.23
					c0,0,0,0,0,0l0,0c0.52-0.8,0.96-1.61,1.37-2.43c0.32-0.66,0.62-1.32,0.87-1.99c0.34-0.9,0.59-1.79,0.8-2.68
					c0.14-0.63,0.26-1.26,0.34-1.89C290.96,237.68,290.76,235.41,290.08,233.46z"/>
				<path class="st3" d="M224.22,223.53c-0.2-0.84-0.32-1.73-0.35-2.65c-0.05-1.38,0.07-2.84,0.39-4.32
					c0.21-0.99,0.5-1.98,0.87-2.98c0.56-1.49,1.3-2.98,2.24-4.42h0c0.28-0.43,0.57-0.83,0.87-1.23c0.08-0.11,0.16-0.21,0.24-0.31
					c0.27-0.35,0.54-0.68,0.82-1.01c0.04-0.05,0.08-0.09,0.12-0.14c0.32-0.36,0.64-0.7,0.98-1.03c0.09-0.09,0.18-0.17,0.26-0.26
					c0.28-0.27,0.56-0.53,0.85-0.78c0.07-0.06,0.14-0.12,0.21-0.18c0.35-0.29,0.7-0.57,1.06-0.83c0.09-0.07,0.18-0.13,0.27-0.19
					c0.29-0.21,0.59-0.41,0.89-0.59c0.09-0.06,0.18-0.11,0.27-0.17c0.37-0.22,0.73-0.43,1.11-0.61c0.08-0.04,0.16-0.08,0.24-0.12
					c0.31-0.15,0.62-0.29,0.93-0.42c0.1-0.04,0.2-0.08,0.3-0.12c0.17-0.07,0.35-0.13,0.52-0.19l-4.97-3.32
					c-3.54,1.96-6.79,4.98-9.23,8.72c-3.11,4.79-4.52,9.98-4.34,14.67l5.94,3.97C224.51,224.55,224.35,224.06,224.22,223.53z"/>
				<polygon class="st3" points="287.29,249.06 287.29,249.05 287.29,249.05 287.29,249.05 				"/>
				<path class="st3" d="M290.33,241.96c-0.2,0.89-0.46,1.79-0.8,2.68C289.87,243.74,290.12,242.84,290.33,241.96z"/>
				<path class="st3" d="M288.28,230.3c0.78,0.9,1.38,1.97,1.8,3.16C289.66,232.27,289.06,231.2,288.28,230.3z"/>
				<path class="st3" d="M225.66,226.97c0.66,1.01,1.5,1.87,2.51,2.53l40.22,27.08l-40.22-27.08
					C227.16,228.83,226.32,227.98,225.66,226.97z"/>
				<path class="st3" d="M245.12,201.03c0.07,0.03,0.14,0.06,0.2,0.1C245.26,201.1,245.19,201.06,245.12,201.03z"/>
				<path class="st3" d="M237.89,200.79c0.06-0.02,0.12-0.03,0.17-0.05C238.01,200.76,237.95,200.77,237.89,200.79z"/>
				<path class="st3" d="M288.66,246.62c-0.4,0.82-0.85,1.64-1.37,2.43C287.81,248.26,288.26,247.44,288.66,246.62z"/>
				<path class="st3" d="M290.66,240.07c0.29-2.39,0.1-4.66-0.59-6.61C290.76,235.41,290.96,237.68,290.66,240.07z"/>
				<path class="st3" d="M239.05,200.5c0.1-0.02,0.2-0.04,0.3-0.06C239.25,200.46,239.15,200.48,239.05,200.5z"/>
				<path class="st3" d="M240.48,200.29c0.01,0,0.02,0,0.03,0C240.5,200.29,240.49,200.29,240.48,200.29z"/>
				<path class="st3" d="M288.28,230.3c-0.52-0.6-1.12-1.13-1.79-1.57C287.16,229.17,287.76,229.7,288.28,230.3z"/>
				<path class="st3" d="M241.59,200.27c0.08,0,0.15,0,0.23,0.01C241.74,200.27,241.67,200.27,241.59,200.27z"/>
				<path class="st3" d="M243.99,200.62c0.05,0.02,0.11,0.03,0.16,0.04C244.1,200.65,244.04,200.64,243.99,200.62z"/>
				<path class="st3" d="M242.88,200.37c0.06,0.01,0.12,0.02,0.17,0.03C242.99,200.4,242.94,200.38,242.88,200.37z"/>
				<path class="st3" d="M286.43,250.29c-0.08,0.11-0.16,0.21-0.24,0.32C286.27,250.5,286.35,250.39,286.43,250.29z"/>
				<path class="st3" d="M285.37,251.61c-0.04,0.05-0.08,0.1-0.12,0.14C285.29,251.7,285.33,251.65,285.37,251.61z"/>
				<path class="st3" d="M280.73,255.61c-0.09,0.05-0.17,0.11-0.26,0.16C280.55,255.72,280.64,255.67,280.73,255.61z"/>
				<path class="st3" d="M270.67,257.6c-0.05-0.02-0.11-0.03-0.16-0.04C270.56,257.57,270.62,257.59,270.67,257.6z"/>
				<path class="st3" d="M271.78,257.85c-0.06-0.01-0.12-0.02-0.17-0.03C271.66,257.83,271.72,257.84,271.78,257.85z"/>
				<path class="st3" d="M279.36,256.39c-0.08,0.04-0.16,0.07-0.23,0.11C279.2,256.47,279.28,256.43,279.36,256.39z"/>
				<path class="st3" d="M281.89,254.83c-0.09,0.06-0.18,0.12-0.26,0.19C281.71,254.95,281.8,254.89,281.89,254.83z"/>
				<path class="st3" d="M278.18,256.93c-0.1,0.04-0.19,0.08-0.29,0.12C277.99,257.01,278.09,256.97,278.18,256.93z"/>
				<path class="st3" d="M275.61,257.72c-0.1,0.02-0.2,0.04-0.3,0.06C275.41,257.76,275.51,257.74,275.61,257.72z"/>
				<path class="st3" d="M269.54,257.19c-0.07-0.03-0.14-0.06-0.21-0.1C269.4,257.12,269.47,257.16,269.54,257.19z"/>
				<path class="st3" d="M276.76,257.44c-0.06,0.02-0.11,0.03-0.17,0.04C276.65,257.47,276.71,257.45,276.76,257.44z"/>
				<path class="st3" d="M273.07,257.96c-0.08,0-0.16,0-0.23-0.01C272.91,257.95,272.99,257.96,273.07,257.96z"/>
				<path class="st3" d="M274.18,257.93c-0.01,0-0.02,0-0.03,0C274.16,257.93,274.17,257.93,274.18,257.93z"/>
				<path class="st3" d="M284.27,252.78c-0.09,0.09-0.17,0.17-0.26,0.25C284.09,252.95,284.18,252.87,284.27,252.78z"/>
				<path class="st3" d="M283.15,253.82c-0.07,0.06-0.13,0.12-0.2,0.18C283.01,253.94,283.08,253.88,283.15,253.82z"/>
				<path class="st3" d="M230.39,205.44c0.09-0.09,0.18-0.17,0.26-0.26C230.56,205.27,230.48,205.35,230.39,205.44z"/>
				<path class="st3" d="M231.51,204.4c0.07-0.06,0.14-0.12,0.21-0.18C231.64,204.28,231.58,204.34,231.51,204.4z"/>
				<path class="st3" d="M224.22,223.53c-0.2-0.84-0.32-1.73-0.35-2.65C223.91,221.8,224.02,222.69,224.22,223.53z"/>
				<path class="st3" d="M228.23,207.94c0.08-0.11,0.16-0.21,0.24-0.31C228.39,207.73,228.31,207.83,228.23,207.94z"/>
				<path class="st3" d="M235.3,201.83c0.08-0.04,0.16-0.08,0.24-0.12C235.46,201.75,235.38,201.79,235.3,201.83z"/>
				<path class="st3" d="M233.93,202.61c0.09-0.06,0.18-0.11,0.27-0.17C234.1,202.5,234.02,202.56,233.93,202.61z"/>
				<path class="st3" d="M229.29,206.61c0.04-0.05,0.08-0.09,0.12-0.14C229.37,206.52,229.33,206.57,229.29,206.61z"/>
				<path class="st3" d="M236.47,201.3c0.1-0.04,0.2-0.08,0.3-0.12C236.67,201.21,236.57,201.26,236.47,201.3z"/>
				<path class="st3" d="M232.77,203.39c0.09-0.06,0.18-0.13,0.27-0.19C232.95,203.27,232.86,203.33,232.77,203.39z"/>
			</g>
			<circle class="st0" cx="126.74" cy="130.32" r="113.97"/>
		</g>
		<g>
			<path class="st3" d="M193.06,66.83c-17.69-17.69-41.24-27.43-66.32-27.43c-25.08,0-48.63,9.74-66.32,27.43
				c-36.57,36.57-36.57,96.07,0,132.64c17.69,17.69,41.24,27.43,66.32,27.43c25.08,0,48.63-9.74,66.32-27.43
				C229.63,162.9,229.63,103.4,193.06,66.83z M185.14,191.54c-0.92,0.92-1.85,1.8-2.8,2.66c-0.15,0.14-0.3,0.27-0.45,0.41
				c-0.9,0.81-1.82,1.6-2.75,2.36c-0.19,0.16-0.38,0.31-0.57,0.47c-0.93,0.75-1.87,1.48-2.83,2.19c-0.17,0.12-0.33,0.24-0.5,0.36
				c-0.91,0.66-1.83,1.3-2.76,1.92c-0.13,0.08-0.25,0.17-0.38,0.26c-0.96,0.63-1.94,1.24-2.92,1.82c-0.26,0.16-0.52,0.31-0.78,0.47
				c-0.93,0.55-1.88,1.07-2.83,1.58c-0.31,0.17-0.63,0.33-0.94,0.49c-0.94,0.48-1.88,0.95-2.83,1.4c-0.32,0.15-0.64,0.29-0.96,0.43
				c-0.74,0.33-1.49,0.66-2.24,0.97c-0.42,0.18-0.85,0.35-1.28,0.52c-0.82,0.33-1.65,0.64-2.48,0.93c-0.47,0.17-0.94,0.34-1.42,0.5
				c-0.84,0.29-1.69,0.56-2.53,0.82c-0.54,0.16-1.08,0.32-1.62,0.47c-0.52,0.14-1.03,0.28-1.55,0.42c-0.9,0.23-1.8,0.45-2.7,0.66
				c-0.41,0.09-0.81,0.18-1.22,0.27c-1.12,0.24-2.25,0.44-3.38,0.63c-0.25,0.04-0.49,0.09-0.74,0.12c-0.72,0.11-1.43,0.22-2.15,0.31
				c-0.04,0.01-0.08,0.01-0.12,0.01c-1.43,0.18-2.85,0.33-4.29,0.44c-0.14,0.01-0.28,0.02-0.42,0.03c-1.4,0.1-2.81,0.17-4.21,0.2
				c-0.05,0-0.11,0-0.16,0c-0.32,0.01-0.63,0.02-0.95,0.02c-0.22,0-0.43,0.02-0.65,0.02h0c-0.22,0-0.44-0.01-0.66-0.02
				c-4.29-0.03-8.57-0.41-12.8-1.1c0,0,0,0,0,0c-1.22-0.2-2.43-0.42-3.63-0.68c-0.03-0.01-0.06-0.01-0.1-0.02
				c-1.17-0.25-2.34-0.52-3.51-0.82c-0.08-0.02-0.16-0.04-0.25-0.07c-1.12-0.29-2.23-0.6-3.34-0.94c-0.15-0.04-0.29-0.1-0.44-0.14
				c-1.05-0.33-2.09-0.67-3.13-1.04c-0.21-0.07-0.42-0.16-0.62-0.24c-0.98-0.36-1.96-0.72-2.92-1.12c-0.25-0.1-0.49-0.21-0.73-0.32
				c-2.19-0.92-4.34-1.92-6.46-3.04c-0.9-0.47-1.78-0.97-2.67-1.48c-0.44-0.26-0.89-0.52-1.33-0.78c-0.27-0.17-0.54-0.34-0.81-0.51
				c-2.2-1.36-4.35-2.83-6.45-4.42c-0.05-0.03-0.09-0.07-0.13-0.1c-0.92-0.7-1.83-1.41-2.72-2.15c-0.27-0.22-0.52-0.45-0.79-0.68
				c-0.54-0.46-1.08-0.91-1.62-1.39c-0.14-0.13-0.29-0.26-0.43-0.39c-0.97-0.88-1.92-1.78-2.85-2.71c-0.72-0.72-1.41-1.47-2.1-2.21
				l0,0c-1.23-1.32-2.43-2.67-3.56-4.05c-1.76-2.16-3.4-4.39-4.91-6.68c-1.51-2.29-2.89-4.64-4.15-7.03
				c-1.91-3.64-3.53-7.4-4.86-11.24l0,0c0-0.01-0.01-0.02-0.01-0.04c0-0.01-0.01-0.02-0.01-0.03c-0.32-0.93-0.62-1.87-0.91-2.81
				c-0.17-0.55-0.33-1.09-0.48-1.64c-0.08-0.3-0.16-0.59-0.24-0.89c-1.23-4.55-2.1-9.18-2.54-13.84c-0.25-2.63-0.38-5.28-0.38-7.92
				c0-0.75,0.03-1.5,0.05-2.24c0-0.12,0-0.23,0.01-0.35c0.06-1.78,0.15-3.56,0.32-5.33c0.05-0.55,0.13-1.1,0.2-1.65
				c0.03-0.3,0.07-0.6,0.11-0.9c0.28-2.19,0.64-4.36,1.09-6.53c0.1-0.46,0.2-0.92,0.3-1.38c0.18-0.78,0.36-1.56,0.56-2.34
				c0.18-0.7,0.37-1.4,0.57-2.1c0.15-0.53,0.31-1.06,0.47-1.59c0.2-0.64,0.4-1.28,0.62-1.91c0.2-0.6,0.41-1.2,0.62-1.8
				c0.28-0.77,0.57-1.54,0.87-2.3c0.17-0.43,0.34-0.86,0.52-1.29c0.38-0.93,0.78-1.85,1.2-2.76c0.14-0.32,0.3-0.63,0.45-0.94
				c0.38-0.81,0.78-1.61,1.19-2.41c0.1-0.2,0.19-0.4,0.3-0.6c0.07-0.14,0.15-0.27,0.22-0.4c0.52-0.98,1.06-1.96,1.63-2.92
				c0.15-0.25,0.3-0.5,0.45-0.74c0.5-0.83,1.02-1.66,1.55-2.48c0.1-0.16,0.2-0.33,0.3-0.49c0.05-0.08,0.11-0.15,0.16-0.23
				c0.65-0.97,1.32-1.93,2.01-2.88c0.17-0.23,0.34-0.46,0.51-0.69c0.64-0.86,1.3-1.72,1.99-2.57c0.08-0.1,0.16-0.21,0.24-0.31
				c0.03-0.03,0.06-0.07,0.09-0.1c0.77-0.94,1.57-1.87,2.39-2.78c0.19-0.22,0.39-0.43,0.58-0.64c0.85-0.93,1.71-1.84,2.6-2.74
				c2.01-2.01,4.1-3.9,6.26-5.66c3.24-2.64,6.64-5,10.15-7.07c2.35-1.38,4.74-2.64,7.19-3.77c11-5.09,22.89-7.64,34.79-7.64
				c21.15,0,42.29,8.05,58.39,24.15C217.33,106.96,217.33,159.35,185.14,191.54z"/>
			<path class="st4" d="M185.14,74.76c-16.1-16.1-37.25-24.15-58.39-24.15c-11.9,0-23.79,2.55-34.79,7.64
				c-2.44,1.13-4.84,2.39-7.19,3.77c-3.52,2.08-6.91,4.43-10.15,7.07c-2.16,1.76-4.25,3.65-6.26,5.66c-0.9,0.9-1.76,1.81-2.6,2.74
				c-0.19,0.21-0.39,0.43-0.58,0.64c-0.82,0.91-1.62,1.84-2.39,2.78c-0.11,0.14-0.22,0.28-0.33,0.41c-0.68,0.84-1.34,1.7-1.99,2.57
				c-0.17,0.23-0.34,0.46-0.51,0.69c-0.69,0.95-1.36,1.91-2.01,2.88c-0.16,0.24-0.31,0.48-0.47,0.72c-0.53,0.82-1.05,1.65-1.55,2.48
				c-0.15,0.25-0.3,0.49-0.45,0.74c-0.56,0.96-1.1,1.94-1.63,2.92c-0.18,0.33-0.35,0.67-0.52,1c-0.41,0.8-0.81,1.6-1.19,2.41
				c-0.15,0.31-0.3,0.63-0.45,0.94c-0.42,0.91-0.81,1.84-1.2,2.76c-0.18,0.43-0.35,0.86-0.52,1.29c-0.3,0.76-0.59,1.53-0.87,2.3
				c-0.21,0.6-0.42,1.2-0.62,1.8c-0.21,0.64-0.42,1.27-0.62,1.91c-0.16,0.53-0.32,1.06-0.47,1.59c-0.2,0.7-0.38,1.4-0.57,2.1
				c-0.2,0.78-0.39,1.56-0.56,2.34c-0.1,0.46-0.21,0.92-0.3,1.38c-0.45,2.16-0.82,4.34-1.09,6.53c-0.04,0.3-0.07,0.6-0.11,0.9
				c-0.27,2.32-0.44,4.65-0.51,6.98c0,0.12-0.01,0.23-0.01,0.35c-0.18,6.69,0.45,13.4,1.88,19.97c2.16-1.46,4.32-2.92,6.4-4.33
				c8.05-5.47,14.89-10.18,15.65-10.68c-6.69-13.85-0.18-31.51,15.26-40.12c11.63-6.66,28.86-11.49,40.96-9.49
				c4.88,0.81,8.91,2.71,11.42,6.06c7.13,10.77-3.53,30.66-15.96,43.57h0l-0.1,0.1c-0.68,0.7-1.36,1.39-2.04,2.05
				c-0.9,0.86-1.81,1.68-2.71,2.47c-0.11,0.09-0.22,0.17-0.33,0.26c-6.63,5.67-14.59,8.55-22.22,8.65
				c7.67-0.07,15.68-2.95,22.35-8.65l-43.52,43.52l-5.04,5.04c0.69,0.74,1.38,1.49,2.1,2.21c0.93,0.93,1.89,1.83,2.85,2.71
				c0.67,0.61,1.35,1.19,2.04,1.77c0.27,0.23,0.53,0.46,0.8,0.68c0.89,0.74,1.79,1.45,2.71,2.14c0.05,0.04,0.1,0.08,0.15,0.12
				c0.97,0.74,1.96,1.45,2.96,2.14l0,0c2.27-1.45,4.47-2.86,6.57-4.19c9.47-6.04,16.7-10.64,17.95-11.46
				c-3.53-9.43,1.88-20.84,11.21-26.3c10.68-6.21,50.21-29.76,51.18-28.81c1.77,1.73-27.46,19.82-46.47,33.25l2.23,3.17
				c19.93-12.17,48.25-30.68,49.05-29.6c1.99,2.66-26.83,20.69-45.41,34.79l2.23,3.14c19.48-12.78,47.16-32.15,47.98-31.13
				c1.86,2.33-26.2,21.6-44.35,36.28l2.22,3.13c19.04-13.39,45.5-34.28,46.93-32.6c0.01,0.02,0.01,0.07-0.02,0.13
				c-0.25,0.54-2.33,2.55-5.47,5.35c-0.09,0.08-0.19,0.17-0.28,0.25c-11.98,10.74-38.5,32.78-38.56,32.81c0,0,9.57-7.97-0.01-0.03
				c-4.57,3.79-9.8,5.86-14.83,6.18c5.07-0.29,10.36-2.36,14.97-6.19c9.58-7.94,0.01,0.03,0.01,0.03
				c0.05-0.04,26.57-22.07,38.56-32.81l-51.96,51.96l-6.61,6.61c3.77,0.45,7.57,0.63,11.37,0.56c0.05,0,0.11,0,0.16,0
				c1.4-0.03,2.8-0.1,4.2-0.2c0.14-0.01,0.29-0.02,0.43-0.03c1.41-0.11,2.82-0.25,4.22-0.43c0.06-0.01,0.13-0.01,0.19-0.02
				c0.71-0.09,1.42-0.2,2.13-0.31c0.28-0.04,0.56-0.09,0.84-0.14c1.09-0.18,2.18-0.39,3.27-0.61c0.43-0.09,0.86-0.18,1.29-0.28
				c0.87-0.2,1.73-0.41,2.6-0.63c0.55-0.14,1.09-0.29,1.64-0.44c0.52-0.15,1.05-0.3,1.57-0.45c0.86-0.26,1.72-0.54,2.58-0.83
				c0.46-0.15,0.91-0.32,1.36-0.48c0.88-0.32,1.76-0.64,2.63-0.99c0.37-0.15,0.74-0.31,1.11-0.46c0.78-0.32,1.56-0.66,2.33-1.01
				c0.3-0.13,0.59-0.26,0.89-0.4c0.97-0.45,1.92-0.93,2.87-1.42c0.3-0.15,0.6-0.31,0.9-0.47c0.96-0.51,1.92-1.04,2.86-1.59
				c0.25-0.15,0.5-0.3,0.75-0.44c0.99-0.59,1.98-1.2,2.95-1.84c0.12-0.08,0.23-0.16,0.35-0.23c0.95-0.63,1.88-1.28,2.8-1.95
				c0.16-0.12,0.32-0.23,0.48-0.35c0.96-0.71,1.9-1.44,2.84-2.2c0.19-0.15,0.38-0.31,0.57-0.46c0.93-0.77,1.85-1.55,2.76-2.36
				c0.15-0.13,0.3-0.27,0.44-0.41c0.95-0.86,1.88-1.75,2.8-2.66C217.33,159.35,217.33,106.96,185.14,74.76z"/>
			<path class="st3" d="M135.83,92.32c-2.51-3.35-6.55-5.25-11.42-6.06c-12.1-2-29.33,2.83-40.96,9.49
				c-15.44,8.61-21.95,26.27-15.26,40.12c-0.76,0.5-7.6,5.21-15.65,10.68c-2.08,1.41-4.24,2.88-6.4,4.33
				c0.29,1.35,0.63,2.69,0.99,4.03c0.08,0.3,0.16,0.6,0.24,0.89c0.15,0.55,0.32,1.09,0.48,1.64c0.29,0.94,0.58,1.88,0.91,2.81
				c0,0,0,0,0,0c2.01-1.61,4.01-3.21,5.95-4.78c8.82-7.11,16.37-13.3,17.4-14.08c0.02,0.02,0.04,0.03,0.05,0.05
				c0.02-0.02,0.05-0.04,0.07-0.05c5.34,5.42,12.62,8.1,20.24,8.03c7.64-0.1,15.59-2.98,22.22-8.65c0.11-0.09,0.22-0.17,0.33-0.26
				c0.9-0.78,1.81-1.6,2.71-2.47c0.68-0.66,1.36-1.35,2.04-2.05l0.1-0.1h0C132.3,122.98,142.96,103.09,135.83,92.32z"/>
			<path class="st3" d="M134.24,183.39l-2.22-3.13c18.15-14.67,46.22-33.95,44.35-36.28c-0.82-1.02-28.5,18.35-47.98,31.13
				l-2.23-3.14c18.59-14.09,47.4-32.13,45.41-34.79c-0.8-1.08-29.13,17.43-49.05,29.6l-2.23-3.17
				c19.01-13.43,48.23-31.53,46.47-33.25c-0.97-0.95-40.5,22.61-51.18,28.81c-9.32,5.45-14.73,16.86-11.21,26.3
				c-1.25,0.81-8.48,5.41-17.95,11.46c-2.09,1.34-4.3,2.74-6.57,4.19c0,0,0,0,0,0c1.11,0.77,2.25,1.5,3.39,2.22
				c0.31,0.19,0.61,0.39,0.92,0.57c0.43,0.26,0.86,0.51,1.29,0.76c0.91,0.52,1.82,1.04,2.74,1.53c0.05,0.03,0.1,0.05,0.15,0.08l0,0
				c2.22-1.69,4.33-3.3,6.31-4.81c7.32-5.58,12.7-9.68,13.65-10.4c0.02,0.02,0.04,0.03,0.06,0.05c0.02-0.02,0.06-0.04,0.08-0.06
				c3.73,3.27,8.53,4.73,13.54,4.45c5.03-0.32,10.27-2.39,14.83-6.18c9.58-7.94,0.01,0.03,0.01,0.03
				c0.05-0.04,26.57-22.07,38.56-32.81c0.09-0.08,0.19-0.17,0.28-0.25c3.13-2.81,5.22-4.81,5.47-5.35c0.03-0.06,0.03-0.11,0.02-0.13
				C179.74,149.11,153.29,170,134.24,183.39z"/>
			<path class="st5" d="M92.47,149.42c-7.63,0.1-14.95-2.56-20.31-7.98c-1.25,0.95-8.71,7.1-17.43,14.11
				c-1.94,1.56-3.95,3.17-5.96,4.76l0,0c3.64,10.5,9.48,20.4,17.47,29.01l0,0l5.04-5.04l43.52-43.52
				C108.14,146.48,100.14,149.35,92.47,149.42z"/>
			<path class="st5" d="M136.98,189.33c0,0,9.57-7.97-0.01-0.03c-4.61,3.82-9.9,5.9-14.97,6.19c-5.03,0.32-9.86-1.13-13.62-4.39
				c-1.11,0.84-6.45,4.91-13.63,10.39c-1.98,1.51-4.1,3.13-6.32,4.82c1.94,1.02,3.92,1.93,5.92,2.78c0.33,0.14,0.66,0.3,1,0.43
				c0.92,0.38,1.85,0.72,2.78,1.07c0.26,0.09,0.51,0.2,0.76,0.29c1.01,0.36,2.02,0.69,3.04,1.01c0.18,0.06,0.35,0.12,0.53,0.17
				c1.09,0.33,2.18,0.64,3.27,0.92c0.1,0.03,0.21,0.06,0.31,0.08c1.15,0.29,2.31,0.56,3.47,0.81c0.05,0.01,0.09,0.02,0.14,0.03
				c1.2,0.25,2.4,0.47,3.6,0.67c0.01,0,0.02,0,0.03,0.01c1.22,0.2,2.45,0.37,3.68,0.52l6.61-6.61l51.96-51.96
				C163.56,167.26,137.03,189.3,136.98,189.33z"/>
		</g>
	</g>
</g>
</svg>
