<?xml version="1.0" encoding="utf-8"?>
<!-- Generator: Adobe Illustrator 24.0.1, SVG Export Plug-In . SVG Version: 6.00 Build 0)  -->
<svg version="1.1" id="Layer_1" xmlns="http://www.w3.org/2000/svg" xmlns:xlink="http://www.w3.org/1999/xlink" x="0px" y="0px"
	 viewBox="0 0 287.93 287.93" style="enable-background:new 0 0 287.93 287.93;" xml:space="preserve">
<style type="text/css">
	.st0{fill:none;}
	.st1{fill:#F47D20;}
	.st2{fill:#FFFFFF;}
	.st3{fill:#F8991D;}
	.st4{fill:#B45426;}
</style>
<g>
	<g>
		<g>
			<g>
				<path class="st0" d="M272.65,262.58c-0.37,0.22-0.74,0.43-1.11,0.62C271.91,263.01,272.28,262.81,272.65,262.58z"/>
				<path class="st0" d="M271.3,263.31c-0.31,0.15-0.63,0.29-0.94,0.42C270.68,263.61,270.99,263.46,271.3,263.31z"/>
				<path class="st0" d="M270.07,263.85c-0.38,0.15-0.75,0.28-1.13,0.39C269.32,264.13,269.7,264,270.07,263.85z"/>
				<path class="st0" d="M276.19,259.85c-0.28,0.27-0.57,0.53-0.86,0.79C275.62,260.38,275.9,260.12,276.19,259.85z"/>
				<path class="st0" d="M273.8,261.82c-0.3,0.21-0.6,0.41-0.9,0.6C273.21,262.23,273.51,262.03,273.8,261.82z"/>
				<path class="st0" d="M268.78,264.29c-0.33,0.09-0.66,0.17-0.99,0.24C268.11,264.46,268.44,264.38,268.78,264.29z"/>
				<path class="st0" d="M275.13,260.81c-0.35,0.29-0.7,0.57-1.06,0.83C274.42,261.38,274.78,261.1,275.13,260.81z"/>
				<path class="st0" d="M262.69,264.36c-0.33-0.1-0.65-0.23-0.97-0.37C262.03,264.14,262.36,264.26,262.69,264.36z"/>
				<path class="st0" d="M263.79,264.62c-0.32-0.06-0.63-0.13-0.94-0.21C263.16,264.5,263.47,264.57,263.79,264.62z"/>
				<path class="st0" d="M261.51,263.9c-0.32-0.15-0.64-0.32-0.94-0.52C260.88,263.58,261.19,263.75,261.51,263.9z"/>
				<path class="st0" d="M265.02,264.76c-0.36-0.02-0.71-0.05-1.06-0.1C264.31,264.71,264.66,264.74,265.02,264.76z"/>
				<path class="st0" d="M266.33,264.74c-0.36,0.03-0.72,0.03-1.08,0.02C265.6,264.77,265.96,264.77,266.33,264.74z"/>
				<path class="st0" d="M266.37,264.74c0.37-0.03,0.74-0.09,1.11-0.15c-0.38,0.07-0.75,0.12-1.13,0.15
					C266.37,264.74,266.37,264.74,266.37,264.74z"/>
				<path class="st0" d="M232.69,207.1c0.36-0.03,0.72-0.03,1.08-0.03C233.41,207.06,233.05,207.07,232.69,207.1z"/>
				<path class="st0" d="M234,207.08c0.36,0.02,0.71,0.05,1.06,0.1C234.71,207.13,234.36,207.1,234,207.08z"/>
				<path class="st0" d="M232.64,207.1c-0.37,0.03-0.74,0.09-1.11,0.15c0.38-0.07,0.75-0.12,1.13-0.15
					C232.65,207.1,232.65,207.1,232.64,207.1z"/>
				<path class="st0" d="M235.23,207.21c0.32,0.06,0.63,0.13,0.94,0.22C235.86,207.34,235.55,207.27,235.23,207.21z"/>
				<path class="st0" d="M230.07,207.59c-0.2,0.06-0.41,0.13-0.61,0.2l0.01,0.01C229.67,207.73,229.87,207.65,230.07,207.59z"/>
				<path class="st0" d="M230.25,207.55c0.33-0.09,0.66-0.17,0.98-0.24C230.9,207.38,230.58,207.45,230.25,207.55z"/>
				<path class="st0" d="M282.84,246.88c-0.08,0.62-0.19,1.25-0.34,1.89C282.65,248.13,282.77,247.5,282.84,246.88z"/>
				<path class="st0" d="M236.33,207.47c0.33,0.1,0.66,0.23,0.97,0.37C236.98,207.7,236.66,207.58,236.33,207.47z"/>
				<path class="st0" d="M278.37,257.41c-0.27,0.35-0.54,0.68-0.82,1.01C277.83,258.09,278.1,257.76,278.37,257.41z"/>
				<path class="st0" d="M281.71,251.44c-0.25,0.66-0.55,1.33-0.87,1.99C281.16,252.77,281.46,252.11,281.71,251.44z"/>
				<path class="st0" d="M279.47,255.87c-0.28,0.42-0.57,0.83-0.86,1.23C278.9,256.7,279.19,256.29,279.47,255.87z"/>
				<path class="st0" d="M277.43,258.56c-0.32,0.36-0.64,0.7-0.98,1.03C276.78,259.26,277.11,258.92,277.43,258.56z"/>
				<path class="st0" d="M237.51,207.94c0.32,0.15,0.64,0.32,0.94,0.52C238.14,208.26,237.83,208.09,237.51,207.94z"/>
				<path class="st1" d="M216.44,223.37c0.21-0.99,0.5-1.98,0.87-2.98C216.93,221.39,216.64,222.39,216.44,223.37z"/>
				<path class="st1" d="M220.65,214.43c0.27-0.35,0.54-0.68,0.82-1.01C221.19,213.75,220.92,214.08,220.65,214.43z"/>
				<path class="st1" d="M223.89,211.03c0.35-0.29,0.7-0.57,1.06-0.83C224.59,210.46,224.24,210.74,223.89,211.03z"/>
				<path class="st1" d="M225.22,210.01c0.29-0.21,0.59-0.41,0.89-0.59C225.81,209.61,225.51,209.8,225.22,210.01z"/>
				<path class="st1" d="M221.59,213.28c0.32-0.36,0.65-0.7,0.98-1.03C222.24,212.58,221.91,212.92,221.59,213.28z"/>
				<path class="st1" d="M222.83,211.99c0.28-0.27,0.57-0.53,0.85-0.78C223.4,211.46,223.11,211.72,222.83,211.99z"/>
				<path class="st1" d="M226.37,209.25c0.37-0.22,0.73-0.43,1.11-0.61C227.11,208.83,226.74,209.03,226.37,209.25z"/>
				<path class="st1" d="M215.27,213.2c2.43-3.75,5.68-6.76,9.23-8.72l-12-8.02c-5.54-3.6-13.38-1.45-17.42,4.77v0
					c-4.04,6.22-2.82,14.26,2.71,17.86l13.15,8.79C210.75,223.18,212.16,217.99,215.27,213.2z"/>
				<path class="st1" d="M227.72,208.52c0.31-0.15,0.62-0.29,0.93-0.42C228.34,208.23,228.03,208.37,227.72,208.52z"/>
				<path class="st1" d="M229.47,207.8L229.47,207.8c-0.18,0.05-0.35,0.12-0.53,0.18C229.12,207.92,229.3,207.86,229.47,207.8z"/>
				<path class="st1" d="M219.54,215.98c0.28-0.43,0.57-0.83,0.87-1.23C220.11,215.14,219.82,215.55,219.54,215.98z"/>
				<path class="st1" d="M282.26,240.27c-0.42-1.19-1.02-2.26-1.8-3.16c-0.52-0.6-1.12-1.13-1.79-1.57l-40.22-27.08
					c-0.3-0.2-0.62-0.36-0.94-0.52c-0.07-0.03-0.14-0.07-0.2-0.1c-0.32-0.14-0.64-0.27-0.97-0.37c-0.05-0.02-0.11-0.03-0.16-0.04
					c-0.31-0.09-0.62-0.16-0.94-0.22c-0.06-0.01-0.12-0.02-0.17-0.03c-0.35-0.05-0.7-0.09-1.06-0.1c-0.08,0-0.15,0-0.23-0.01
					c-0.36-0.01-0.72,0-1.08,0.03c-0.01,0-0.02,0-0.03,0c-0.37,0.03-0.75,0.09-1.13,0.15c-0.1,0.02-0.2,0.04-0.3,0.06
					c-0.33,0.07-0.65,0.14-0.98,0.24c-0.06,0.02-0.12,0.03-0.17,0.05c-0.2,0.06-0.4,0.14-0.6,0.21c-0.18,0.06-0.35,0.11-0.53,0.18
					c-0.1,0.04-0.2,0.08-0.3,0.12c-0.31,0.13-0.62,0.27-0.93,0.42c-0.08,0.04-0.16,0.07-0.24,0.12c-0.37,0.19-0.74,0.39-1.11,0.61
					c-0.09,0.05-0.18,0.11-0.27,0.17c-0.3,0.19-0.6,0.38-0.89,0.59c-0.09,0.06-0.18,0.12-0.27,0.19c-0.36,0.26-0.71,0.54-1.06,0.83
					c-0.07,0.06-0.14,0.12-0.21,0.18c-0.29,0.25-0.57,0.51-0.85,0.78c-0.09,0.09-0.18,0.17-0.26,0.26
					c-0.33,0.33-0.66,0.67-0.98,1.03c-0.04,0.05-0.08,0.09-0.12,0.14c-0.28,0.32-0.56,0.66-0.82,1.01c-0.08,0.1-0.16,0.21-0.24,0.31
					c-0.3,0.4-0.59,0.81-0.87,1.23h0c-0.93,1.44-1.68,2.92-2.24,4.42c-0.37,1-0.66,1.99-0.87,2.98c-0.31,1.48-0.44,2.93-0.39,4.32
					c0.04,0.92,0.15,1.81,0.35,2.65c0.12,0.52,0.29,1.02,0.47,1.5c0.26,0.69,0.58,1.34,0.96,1.93c0.66,1.01,1.5,1.87,2.51,2.53
					l40.22,27.08c0.3,0.2,0.62,0.36,0.94,0.52c0.07,0.03,0.14,0.07,0.21,0.1c0.32,0.14,0.64,0.27,0.97,0.37
					c0.05,0.02,0.11,0.03,0.16,0.04c0.31,0.09,0.62,0.16,0.94,0.21c0.06,0.01,0.12,0.02,0.17,0.03c0.35,0.05,0.7,0.09,1.06,0.1
					c0.08,0,0.15,0,0.23,0.01c0.36,0.01,0.72,0,1.08-0.02c0.01,0,0.02,0,0.03,0c0.37-0.03,0.75-0.09,1.13-0.15
					c0.1-0.02,0.2-0.04,0.3-0.06c0.33-0.07,0.66-0.15,0.99-0.24c0.06-0.02,0.11-0.03,0.17-0.04c0.38-0.11,0.75-0.25,1.13-0.39
					c0.1-0.04,0.19-0.08,0.29-0.12c0.31-0.13,0.63-0.27,0.94-0.42c0.08-0.04,0.16-0.07,0.23-0.11c0.37-0.19,0.74-0.4,1.11-0.62
					c0.09-0.05,0.17-0.11,0.26-0.16c0.3-0.19,0.6-0.39,0.9-0.6c0.09-0.06,0.18-0.12,0.26-0.19c0.36-0.26,0.71-0.54,1.06-0.83
					c0.07-0.06,0.13-0.12,0.2-0.18c0.29-0.25,0.58-0.51,0.86-0.79c0.09-0.08,0.18-0.17,0.26-0.25c0.33-0.33,0.66-0.67,0.98-1.03
					c0.04-0.05,0.08-0.1,0.12-0.14c0.28-0.32,0.55-0.66,0.82-1.01c0.08-0.1,0.16-0.21,0.24-0.32c0.3-0.4,0.59-0.8,0.86-1.23
					c0,0,0,0,0,0l0,0c0.52-0.8,0.96-1.61,1.37-2.43c0.32-0.66,0.62-1.32,0.87-1.99c0.34-0.9,0.59-1.79,0.8-2.68
					c0.14-0.63,0.26-1.26,0.34-1.89C283.14,244.49,282.94,242.22,282.26,240.27z"/>
				<path class="st2" d="M216.4,230.34c-0.2-0.84-0.32-1.73-0.35-2.65c-0.05-1.38,0.07-2.84,0.39-4.32c0.21-0.99,0.5-1.98,0.87-2.98
					c0.56-1.49,1.3-2.98,2.24-4.42h0c0.28-0.43,0.57-0.83,0.87-1.23c0.08-0.11,0.16-0.21,0.24-0.31c0.27-0.35,0.54-0.68,0.82-1.01
					c0.04-0.05,0.08-0.09,0.12-0.14c0.32-0.36,0.64-0.7,0.98-1.03c0.09-0.09,0.18-0.17,0.26-0.26c0.28-0.27,0.56-0.53,0.85-0.78
					c0.07-0.06,0.14-0.12,0.21-0.18c0.35-0.29,0.7-0.57,1.06-0.83c0.09-0.07,0.18-0.13,0.27-0.19c0.29-0.21,0.59-0.41,0.89-0.59
					c0.09-0.06,0.18-0.11,0.27-0.17c0.37-0.22,0.73-0.43,1.11-0.61c0.08-0.04,0.16-0.08,0.24-0.12c0.31-0.15,0.62-0.29,0.93-0.42
					c0.1-0.04,0.2-0.08,0.3-0.12c0.17-0.07,0.35-0.13,0.52-0.19l-4.97-3.32c-3.54,1.96-6.79,4.98-9.23,8.72
					c-3.11,4.79-4.52,9.98-4.34,14.67l5.94,3.97C216.69,231.36,216.53,230.86,216.4,230.34z"/>
				<polygon class="st2" points="279.47,255.87 279.47,255.86 279.47,255.86 279.47,255.86 				"/>
				<path class="st2" d="M282.51,248.76c-0.2,0.89-0.46,1.79-0.8,2.68C282.05,250.55,282.3,249.65,282.51,248.76z"/>
				<path class="st2" d="M280.46,237.11c0.78,0.9,1.38,1.97,1.8,3.16C281.84,239.08,281.24,238.01,280.46,237.11z"/>
				<path class="st2" d="M217.84,233.77c0.66,1.01,1.5,1.87,2.51,2.53l40.22,27.08l-40.22-27.08
					C219.34,235.64,218.5,234.78,217.84,233.77z"/>
				<path class="st2" d="M237.3,207.84c0.07,0.03,0.14,0.06,0.2,0.1C237.44,207.91,237.37,207.87,237.3,207.84z"/>
				<path class="st2" d="M230.07,207.59c0.06-0.02,0.12-0.03,0.17-0.05C230.19,207.56,230.13,207.58,230.07,207.59z"/>
				<path class="st2" d="M280.84,253.43c-0.4,0.82-0.85,1.64-1.37,2.43C279.99,255.07,280.44,254.25,280.84,253.43z"/>
				<path class="st2" d="M282.84,246.88c0.29-2.39,0.1-4.66-0.59-6.61C282.94,242.22,283.14,244.49,282.84,246.88z"/>
				<path class="st2" d="M231.23,207.31c0.1-0.02,0.2-0.04,0.3-0.06C231.43,207.27,231.33,207.29,231.23,207.31z"/>
				<path class="st2" d="M232.66,207.1c0.01,0,0.02,0,0.03,0C232.68,207.1,232.67,207.1,232.66,207.1z"/>
				<path class="st2" d="M280.46,237.11c-0.52-0.6-1.12-1.13-1.79-1.57C279.34,235.98,279.94,236.5,280.46,237.11z"/>
				<path class="st2" d="M233.77,207.07c0.08,0,0.15,0,0.23,0.01C233.92,207.08,233.85,207.07,233.77,207.07z"/>
				<path class="st2" d="M236.17,207.43c0.05,0.02,0.11,0.03,0.16,0.04C236.28,207.46,236.22,207.44,236.17,207.43z"/>
				<path class="st2" d="M235.06,207.18c0.06,0.01,0.12,0.02,0.17,0.03C235.17,207.2,235.12,207.19,235.06,207.18z"/>
				<path class="st2" d="M278.61,257.09c-0.08,0.11-0.16,0.21-0.24,0.32C278.45,257.31,278.53,257.2,278.61,257.09z"/>
				<path class="st2" d="M277.55,258.42c-0.04,0.05-0.08,0.1-0.12,0.14C277.47,258.51,277.51,258.46,277.55,258.42z"/>
				<path class="st2" d="M272.91,262.42c-0.09,0.05-0.17,0.11-0.26,0.16C272.73,262.53,272.82,262.48,272.91,262.42z"/>
				<path class="st2" d="M262.85,264.41c-0.05-0.02-0.11-0.03-0.16-0.04C262.74,264.38,262.8,264.39,262.85,264.41z"/>
				<path class="st2" d="M263.96,264.66c-0.06-0.01-0.12-0.02-0.17-0.03C263.84,264.63,263.9,264.65,263.96,264.66z"/>
				<path class="st2" d="M271.54,263.2c-0.08,0.04-0.16,0.07-0.23,0.11C271.38,263.27,271.46,263.24,271.54,263.2z"/>
				<path class="st2" d="M274.07,261.64c-0.09,0.06-0.18,0.12-0.26,0.19C273.89,261.76,273.98,261.7,274.07,261.64z"/>
				<path class="st2" d="M270.36,263.73c-0.1,0.04-0.19,0.08-0.29,0.12C270.17,263.82,270.27,263.77,270.36,263.73z"/>
				<path class="st2" d="M267.79,264.53c-0.1,0.02-0.2,0.04-0.3,0.06C267.59,264.57,267.69,264.55,267.79,264.53z"/>
				<path class="st2" d="M261.72,264c-0.07-0.03-0.14-0.06-0.21-0.1C261.58,263.93,261.65,263.97,261.72,264z"/>
				<path class="st2" d="M268.94,264.24c-0.06,0.02-0.11,0.03-0.17,0.04C268.83,264.27,268.89,264.26,268.94,264.24z"/>
				<path class="st2" d="M265.25,264.77c-0.08,0-0.16,0-0.23-0.01C265.09,264.76,265.17,264.76,265.25,264.77z"/>
				<path class="st2" d="M266.36,264.74c-0.01,0-0.02,0-0.03,0C266.34,264.74,266.35,264.74,266.36,264.74z"/>
				<path class="st2" d="M276.45,259.59c-0.09,0.09-0.17,0.17-0.26,0.25C276.27,259.76,276.36,259.68,276.45,259.59z"/>
				<path class="st2" d="M275.33,260.63c-0.07,0.06-0.13,0.12-0.2,0.18C275.19,260.75,275.26,260.69,275.33,260.63z"/>
				<path class="st2" d="M222.57,212.25c0.09-0.09,0.18-0.17,0.26-0.26C222.74,212.08,222.66,212.16,222.57,212.25z"/>
				<path class="st2" d="M223.69,211.21c0.07-0.06,0.14-0.12,0.21-0.18C223.82,211.09,223.76,211.15,223.69,211.21z"/>
				<path class="st2" d="M216.4,230.34c-0.2-0.84-0.32-1.73-0.35-2.65C216.09,228.61,216.2,229.5,216.4,230.34z"/>
				<path class="st2" d="M220.41,214.74c0.08-0.11,0.16-0.21,0.24-0.31C220.57,214.53,220.49,214.64,220.41,214.74z"/>
				<path class="st2" d="M227.48,208.64c0.08-0.04,0.16-0.08,0.24-0.12C227.64,208.56,227.56,208.6,227.48,208.64z"/>
				<path class="st2" d="M226.11,209.42c0.09-0.06,0.18-0.11,0.27-0.17C226.28,209.31,226.2,209.36,226.11,209.42z"/>
				<path class="st2" d="M221.47,213.42c0.04-0.05,0.08-0.09,0.12-0.14C221.55,213.33,221.51,213.38,221.47,213.42z"/>
				<path class="st2" d="M228.65,208.1c0.1-0.04,0.2-0.08,0.3-0.12C228.85,208.02,228.75,208.06,228.65,208.1z"/>
				<path class="st2" d="M224.95,210.2c0.09-0.06,0.18-0.13,0.27-0.19C225.13,210.08,225.04,210.14,224.95,210.2z"/>
			</g>
			<circle class="st1" cx="118.92" cy="137.13" r="113.97"/>
		</g>
		<g>
			<path class="st2" d="M185.24,73.64C167.56,55.95,144,46.21,118.92,46.21c-25.08,0-48.63,9.74-66.32,27.43
				c-36.57,36.57-36.57,96.07,0,132.64c17.69,17.69,41.24,27.43,66.32,27.43c25.08,0,48.63-9.74,66.32-27.43
				C221.81,169.71,221.81,110.21,185.24,73.64z M177.32,198.35c-0.92,0.92-1.85,1.8-2.8,2.66c-0.15,0.14-0.3,0.27-0.45,0.41
				c-0.9,0.81-1.82,1.6-2.75,2.36c-0.19,0.16-0.38,0.31-0.57,0.47c-0.93,0.75-1.87,1.48-2.83,2.19c-0.17,0.12-0.33,0.24-0.5,0.36
				c-0.91,0.66-1.83,1.3-2.76,1.92c-0.13,0.08-0.25,0.17-0.38,0.26c-0.96,0.63-1.94,1.24-2.92,1.82c-0.26,0.16-0.52,0.31-0.78,0.47
				c-0.93,0.55-1.88,1.07-2.83,1.58c-0.31,0.17-0.63,0.33-0.94,0.49c-0.94,0.48-1.88,0.95-2.83,1.4c-0.32,0.15-0.64,0.29-0.96,0.43
				c-0.74,0.33-1.49,0.66-2.24,0.97c-0.42,0.18-0.85,0.35-1.28,0.52c-0.82,0.33-1.65,0.64-2.48,0.93c-0.47,0.17-0.94,0.34-1.42,0.5
				c-0.84,0.29-1.69,0.56-2.53,0.82c-0.54,0.16-1.08,0.32-1.62,0.47c-0.52,0.15-1.03,0.28-1.55,0.42c-0.9,0.23-1.8,0.45-2.7,0.66
				c-0.41,0.09-0.81,0.18-1.22,0.27c-1.12,0.24-2.25,0.44-3.38,0.63c-0.25,0.04-0.49,0.09-0.74,0.12c-0.72,0.11-1.43,0.22-2.15,0.31
				c-0.04,0.01-0.08,0.01-0.12,0.01c-1.43,0.18-2.85,0.33-4.29,0.44c-0.14,0.01-0.28,0.02-0.42,0.03c-1.4,0.1-2.81,0.17-4.21,0.2
				c-0.05,0-0.11,0-0.16,0c-0.32,0.01-0.63,0.02-0.95,0.02c-0.22,0-0.43,0.02-0.65,0.02h0c-0.22,0-0.44-0.01-0.66-0.02
				c-4.29-0.03-8.57-0.41-12.8-1.1c0,0,0,0,0,0c-1.22-0.2-2.43-0.42-3.63-0.68c-0.03-0.01-0.06-0.01-0.1-0.02
				c-1.17-0.25-2.34-0.52-3.51-0.82c-0.08-0.02-0.16-0.04-0.25-0.07c-1.12-0.29-2.23-0.6-3.34-0.94c-0.15-0.04-0.29-0.1-0.44-0.14
				c-1.05-0.33-2.09-0.67-3.13-1.04c-0.21-0.07-0.42-0.16-0.62-0.24c-0.98-0.36-1.96-0.72-2.92-1.12c-0.25-0.1-0.49-0.21-0.73-0.32
				c-2.19-0.92-4.34-1.92-6.46-3.04c-0.9-0.47-1.78-0.97-2.67-1.48c-0.44-0.26-0.89-0.52-1.33-0.78c-0.27-0.17-0.54-0.34-0.81-0.51
				c-2.2-1.36-4.35-2.83-6.45-4.42c-0.05-0.03-0.09-0.07-0.13-0.1c-0.92-0.7-1.83-1.41-2.72-2.15c-0.27-0.22-0.52-0.45-0.79-0.68
				c-0.54-0.46-1.08-0.91-1.62-1.39c-0.14-0.13-0.29-0.26-0.43-0.39c-0.97-0.88-1.92-1.78-2.85-2.71c-0.72-0.72-1.41-1.47-2.1-2.21
				l0,0c-1.23-1.32-2.43-2.67-3.56-4.05c-1.76-2.16-3.4-4.39-4.91-6.68c-1.51-2.29-2.89-4.64-4.15-7.03
				c-1.91-3.64-3.53-7.4-4.86-11.24l0,0c0-0.01-0.01-0.02-0.01-0.04c0-0.01-0.01-0.02-0.01-0.03c-0.32-0.93-0.62-1.87-0.91-2.81
				c-0.17-0.55-0.33-1.09-0.48-1.64c-0.08-0.3-0.16-0.59-0.24-0.89c-1.23-4.55-2.1-9.18-2.54-13.84c-0.25-2.63-0.38-5.28-0.38-7.92
				c0-0.75,0.03-1.5,0.05-2.24c0-0.12,0-0.23,0.01-0.35c0.06-1.78,0.15-3.56,0.32-5.33c0.05-0.55,0.13-1.1,0.2-1.65
				c0.03-0.3,0.07-0.6,0.11-0.9c0.28-2.19,0.64-4.36,1.09-6.53c0.1-0.46,0.2-0.92,0.3-1.38c0.18-0.78,0.36-1.56,0.56-2.34
				c0.18-0.7,0.37-1.4,0.57-2.1c0.15-0.53,0.31-1.06,0.47-1.59c0.2-0.64,0.4-1.28,0.62-1.91c0.2-0.6,0.41-1.2,0.62-1.8
				c0.28-0.77,0.57-1.54,0.87-2.3c0.17-0.43,0.34-0.86,0.52-1.29c0.38-0.93,0.78-1.85,1.2-2.76c0.14-0.32,0.3-0.63,0.45-0.94
				c0.38-0.81,0.78-1.61,1.19-2.41c0.1-0.2,0.19-0.4,0.3-0.6c0.07-0.14,0.15-0.27,0.22-0.4c0.52-0.98,1.06-1.96,1.63-2.92
				c0.15-0.25,0.3-0.5,0.45-0.74c0.5-0.83,1.02-1.66,1.55-2.48c0.1-0.16,0.2-0.33,0.3-0.49c0.05-0.08,0.11-0.15,0.16-0.23
				c0.65-0.97,1.32-1.93,2.01-2.88c0.17-0.23,0.34-0.46,0.51-0.69c0.64-0.86,1.3-1.72,1.99-2.57c0.08-0.1,0.16-0.21,0.24-0.31
				c0.03-0.03,0.06-0.07,0.09-0.1c0.77-0.94,1.57-1.87,2.39-2.78c0.19-0.22,0.39-0.43,0.58-0.64c0.85-0.93,1.71-1.84,2.6-2.74
				c2.01-2.01,4.1-3.9,6.26-5.66c3.24-2.64,6.64-5,10.15-7.07c2.35-1.38,4.74-2.64,7.19-3.77c11-5.09,22.89-7.64,34.79-7.64
				c21.15,0,42.29,8.05,58.39,24.15C209.51,113.76,209.51,166.15,177.32,198.35z"/>
			<path class="st3" d="M177.32,81.56c-16.1-16.1-37.25-24.15-58.39-24.15c-11.9,0-23.79,2.55-34.79,7.64
				c-2.44,1.13-4.84,2.39-7.19,3.77c-3.52,2.08-6.91,4.43-10.15,7.07c-2.16,1.76-4.25,3.65-6.26,5.66c-0.9,0.9-1.76,1.81-2.6,2.74
				c-0.19,0.21-0.39,0.43-0.58,0.64c-0.82,0.91-1.62,1.84-2.39,2.78c-0.11,0.14-0.22,0.28-0.33,0.41c-0.68,0.84-1.34,1.7-1.99,2.57
				c-0.17,0.23-0.34,0.46-0.51,0.69c-0.69,0.95-1.36,1.91-2.01,2.88c-0.16,0.24-0.31,0.48-0.47,0.72c-0.53,0.82-1.05,1.65-1.55,2.48
				c-0.15,0.25-0.3,0.49-0.45,0.74c-0.56,0.96-1.1,1.94-1.63,2.92c-0.18,0.33-0.35,0.67-0.52,1c-0.41,0.8-0.81,1.6-1.19,2.41
				c-0.15,0.31-0.3,0.63-0.45,0.94c-0.42,0.91-0.81,1.84-1.2,2.76c-0.18,0.43-0.35,0.86-0.52,1.29c-0.3,0.76-0.59,1.53-0.87,2.3
				c-0.21,0.6-0.42,1.2-0.62,1.8c-0.21,0.64-0.42,1.27-0.62,1.91c-0.16,0.53-0.32,1.06-0.47,1.59c-0.2,0.7-0.38,1.4-0.57,2.1
				c-0.2,0.78-0.39,1.56-0.56,2.34c-0.1,0.46-0.21,0.92-0.3,1.38c-0.45,2.16-0.82,4.34-1.09,6.53c-0.04,0.3-0.07,0.6-0.11,0.9
				c-0.27,2.32-0.44,4.65-0.51,6.98c0,0.12-0.01,0.23-0.01,0.35c-0.18,6.69,0.45,13.4,1.88,19.97c2.16-1.46,4.32-2.92,6.4-4.33
				c8.05-5.47,14.89-10.18,15.65-10.68c-6.69-13.85-0.18-31.51,15.26-40.12c11.63-6.66,28.86-11.49,40.96-9.49
				c4.88,0.81,8.91,2.71,11.42,6.06c7.13,10.77-3.53,30.66-15.96,43.57h0l-0.1,0.1c-0.68,0.7-1.36,1.39-2.04,2.05
				c-0.9,0.86-1.81,1.68-2.71,2.47c-0.11,0.09-0.22,0.17-0.33,0.26c-6.63,5.67-14.59,8.55-22.22,8.65
				c7.67-0.07,15.68-2.95,22.35-8.65L63.47,191.1l-5.04,5.04c0.69,0.74,1.38,1.49,2.1,2.21c0.93,0.93,1.89,1.83,2.85,2.71
				c0.67,0.61,1.35,1.19,2.04,1.77c0.27,0.23,0.53,0.46,0.8,0.68c0.89,0.74,1.79,1.45,2.71,2.14c0.05,0.04,0.1,0.08,0.15,0.12
				c0.97,0.74,1.96,1.45,2.96,2.14l0,0c2.27-1.45,4.47-2.86,6.57-4.19c9.47-6.04,16.7-10.64,17.95-11.46
				c-3.53-9.43,1.88-20.84,11.21-26.3c10.68-6.21,50.21-29.76,51.18-28.81c1.77,1.73-27.46,19.82-46.47,33.25l2.23,3.17
				c19.93-12.17,48.25-30.68,49.05-29.6c1.99,2.66-26.83,20.69-45.41,34.79l2.23,3.14c19.48-12.78,47.16-32.15,47.98-31.13
				c1.86,2.33-26.2,21.6-44.35,36.28l2.22,3.13c19.04-13.39,45.5-34.28,46.93-32.6c0.01,0.02,0.01,0.07-0.02,0.13
				c-0.25,0.54-2.33,2.55-5.47,5.35c-0.09,0.08-0.19,0.17-0.28,0.25c-11.98,10.74-38.5,32.78-38.56,32.81c0,0,9.57-7.97-0.01-0.03
				c-4.57,3.79-9.8,5.86-14.83,6.18c5.07-0.29,10.36-2.36,14.97-6.19c9.58-7.94,0.01,0.03,0.01,0.03
				c0.05-0.04,26.57-22.07,38.56-32.81l-51.96,51.96l-6.61,6.61c3.77,0.45,7.57,0.63,11.37,0.56c0.05,0,0.11,0,0.16,0
				c1.4-0.03,2.8-0.1,4.2-0.2c0.14-0.01,0.29-0.02,0.43-0.03c1.41-0.11,2.82-0.25,4.22-0.43c0.06-0.01,0.13-0.01,0.19-0.02
				c0.71-0.09,1.42-0.2,2.13-0.31c0.28-0.04,0.56-0.09,0.84-0.14c1.09-0.18,2.18-0.39,3.27-0.61c0.43-0.09,0.86-0.18,1.29-0.28
				c0.87-0.2,1.73-0.41,2.6-0.63c0.55-0.14,1.09-0.29,1.64-0.44c0.52-0.15,1.05-0.3,1.57-0.45c0.86-0.26,1.72-0.54,2.58-0.83
				c0.46-0.15,0.91-0.32,1.36-0.48c0.88-0.32,1.76-0.64,2.63-0.99c0.37-0.15,0.74-0.31,1.11-0.46c0.78-0.32,1.56-0.66,2.33-1.01
				c0.3-0.13,0.59-0.26,0.89-0.4c0.97-0.45,1.92-0.93,2.87-1.42c0.3-0.15,0.6-0.31,0.9-0.47c0.96-0.51,1.92-1.04,2.86-1.59
				c0.25-0.15,0.5-0.3,0.75-0.44c0.99-0.59,1.98-1.2,2.95-1.84c0.12-0.08,0.23-0.16,0.35-0.23c0.95-0.63,1.88-1.28,2.8-1.95
				c0.16-0.12,0.32-0.23,0.48-0.35c0.96-0.71,1.9-1.44,2.84-2.2c0.19-0.15,0.38-0.31,0.57-0.46c0.93-0.77,1.85-1.55,2.76-2.36
				c0.15-0.13,0.3-0.27,0.44-0.41c0.95-0.86,1.88-1.75,2.8-2.66C209.51,166.15,209.51,113.76,177.32,81.56z"/>
			<path class="st2" d="M128.01,99.13c-2.51-3.35-6.55-5.25-11.42-6.06c-12.1-2-29.33,2.83-40.96,9.49
				c-15.44,8.61-21.95,26.27-15.26,40.12c-0.76,0.5-7.6,5.21-15.65,10.68c-2.08,1.41-4.24,2.88-6.4,4.33
				c0.29,1.35,0.63,2.69,0.99,4.03c0.08,0.3,0.16,0.6,0.24,0.89c0.15,0.55,0.32,1.09,0.48,1.64c0.29,0.94,0.58,1.88,0.91,2.81
				c0,0,0,0,0,0c2.01-1.61,4.01-3.21,5.95-4.78c8.82-7.11,16.37-13.3,17.4-14.08c0.02,0.02,0.04,0.03,0.05,0.05
				c0.02-0.02,0.05-0.04,0.07-0.05c5.34,5.42,12.62,8.1,20.24,8.03c7.64-0.1,15.59-2.98,22.22-8.65c0.11-0.09,0.22-0.17,0.33-0.26
				c0.9-0.78,1.81-1.6,2.71-2.47c0.68-0.66,1.36-1.35,2.04-2.05l0.1-0.1h0C124.48,129.78,135.14,109.9,128.01,99.13z"/>
			<path class="st2" d="M126.42,190.2l-2.22-3.13c18.15-14.67,46.22-33.95,44.35-36.28c-0.82-1.02-28.5,18.35-47.98,31.13
				l-2.23-3.14c18.59-14.09,47.4-32.13,45.41-34.79c-0.8-1.08-29.13,17.43-49.05,29.6l-2.23-3.17
				c19.01-13.43,48.23-31.53,46.47-33.25c-0.97-0.95-40.5,22.61-51.18,28.81c-9.32,5.45-14.73,16.86-11.21,26.3
				c-1.25,0.81-8.48,5.41-17.95,11.46c-2.09,1.34-4.3,2.74-6.57,4.19c0,0,0,0,0,0c1.11,0.77,2.25,1.5,3.39,2.22
				c0.31,0.19,0.61,0.39,0.92,0.57c0.43,0.26,0.86,0.51,1.29,0.76c0.91,0.52,1.82,1.04,2.74,1.53c0.05,0.03,0.1,0.05,0.15,0.08l0,0
				c2.22-1.69,4.33-3.3,6.31-4.81c7.32-5.58,12.7-9.68,13.65-10.4c0.02,0.02,0.04,0.03,0.06,0.05c0.02-0.02,0.06-0.04,0.08-0.06
				c3.73,3.27,8.53,4.73,13.54,4.45c5.03-0.32,10.27-2.39,14.83-6.18c9.58-7.94,0.01,0.03,0.01,0.03
				c0.05-0.04,26.57-22.07,38.56-32.81c0.09-0.08,0.19-0.17,0.28-0.25c3.13-2.81,5.22-4.81,5.47-5.35c0.03-0.06,0.03-0.11,0.02-0.13
				C171.92,155.92,145.47,176.81,126.42,190.2z"/>
			<path class="st4" d="M84.65,156.23c-7.63,0.1-14.95-2.56-20.31-7.98c-1.25,0.95-8.71,7.1-17.43,14.11
				c-1.94,1.56-3.95,3.17-5.96,4.76l0,0c3.64,10.5,9.48,20.4,17.47,29.01l0,0l5.04-5.04l43.52-43.52
				C100.32,153.28,92.32,156.16,84.65,156.23z"/>
			<path class="st4" d="M129.16,196.14c0,0,9.57-7.97-0.01-0.03c-4.61,3.82-9.9,5.9-14.97,6.19c-5.03,0.32-9.86-1.13-13.62-4.39
				c-1.11,0.84-6.45,4.91-13.63,10.39c-1.98,1.51-4.1,3.13-6.32,4.82c1.94,1.02,3.92,1.93,5.92,2.78c0.33,0.14,0.66,0.3,1,0.43
				c0.92,0.38,1.85,0.72,2.78,1.07c0.26,0.09,0.51,0.2,0.76,0.29c1.01,0.36,2.02,0.69,3.04,1.01c0.18,0.06,0.35,0.12,0.53,0.17
				c1.09,0.33,2.18,0.64,3.27,0.92c0.1,0.03,0.21,0.06,0.31,0.08c1.15,0.29,2.31,0.56,3.47,0.81c0.05,0.01,0.09,0.02,0.14,0.03
				c1.2,0.25,2.4,0.47,3.6,0.67c0.01,0,0.02,0,0.03,0.01c1.22,0.2,2.45,0.37,3.68,0.52l6.61-6.61l51.96-51.96
				C155.74,174.07,129.21,196.11,129.16,196.14z"/>
		</g>
	</g>
</g>
</svg>
